<svg xmlns="http://www.w3.org/2000/svg" width="22" height="22" viewBox="0 0 22 22"><path d="M11 0C4.925 0 0 4.925 0 11c0 4.66 2.9 8.644 6.991 10.247-.096-.87-.183-2.21.038-3.16.2-.858 1.29-5.467 1.29-5.467s-.329-.659-.329-1.633c0-1.53.887-2.672 1.99-2.672.94 0 1.392.705 1.392 1.55 0 .944-.6 2.355-.91 3.662-.26 1.095.549 1.988 1.628 1.988 1.955 0 3.458-2.061 3.458-5.037 0-2.634-1.892-4.475-4.595-4.475-3.13 0-4.966 2.347-4.966 4.773 0 .946.364 1.96.818 2.51a.33.33 0 0 1 .076.316c-.083.348-.269 1.095-.305 1.248-.048.201-.16.244-.368.147-1.374-.64-2.233-2.648-2.233-4.262 0-3.47 2.521-6.656 7.268-6.656 3.816 0 6.782 2.719 6.782 6.353 0 3.79-2.39 6.842-5.708 6.842-1.115 0-2.163-.58-2.522-1.263l-.685 2.615c-.248.955-.919 2.153-1.367 2.883 1.03.319 2.123.49 3.257.49 6.075 0 11-4.924 11-11C22 4.926 17.075 0 11 0Z"/></svg>